<?xml version="1.0" encoding="UTF-8"?>
<svg id="Layer_1" xmlns="http://www.w3.org/2000/svg" version="1.1" viewBox="0 0 180 180">
  <!-- Generator: Adobe Illustrator 29.8.2, SVG Export Plug-In . SVG Version: 2.1.1 Build 3)  -->
  <defs>
    <style>
      .st0 {
        fill: #231f20;
      }

      .st1 {
        fill: #fff;
        stroke: #231f20;
        stroke-miterlimit: 10;
        stroke-width: .25px;
      }
    </style>
  </defs>
  <circle class="st1" cx="90.084" cy="89.863" r="87.559"/>
  <g>
    <path class="st0" d="M14.54,102.169v-24.532h3.353v24.532s-3.353,0-3.353,0Z"/>
    <path class="st0" d="M51.888,77.637h3.353v24.532h-4.491l-19.382-20.94v20.94h-3.353v-24.532h4.452l19.423,20.94v-20.94h-.001Z"/>
    <path class="st0" d="M79.754,102.568c-2.316,0-4.395-.199-6.238-.599s-3.381-.951-4.611-1.657c-1.231-.706-2.252-1.557-3.064-2.555-.812-.998-1.394-2.069-1.747-3.213s-.529-2.388-.529-3.732v-1.797c0-1.358.176-2.615.529-3.772.353-1.157.934-2.239,1.747-3.244.811-1.005,1.833-1.859,3.064-2.565,1.231-.706,2.767-1.261,4.611-1.667,1.843-.406,3.922-.609,6.238-.609,2.302,0,4.368.193,6.198.579,1.83.386,3.364.925,4.601,1.617,1.238.692,2.262,1.53,3.074,2.515.811.985,1.401,2.053,1.766,3.204s.548,2.406.548,3.763v1.797c0,1.331-.173,2.568-.519,3.713s-.922,2.229-1.726,3.253c-.806,1.025-1.82,1.9-3.044,2.625-1.224.725-2.762,1.297-4.611,1.717-1.85.419-3.946.629-6.288.629v-.003ZM79.754,99.314c8.504,0,12.755-2.755,12.755-8.264v-1.797c0-2.741-1.058-4.901-3.174-6.477-2.115-1.577-5.31-2.366-9.581-2.366-4.351,0-7.565.752-9.642,2.255-2.076,1.504-3.114,3.62-3.114,6.347v1.797c0,2.688,1.038,4.777,3.114,6.268,2.076,1.491,5.29,2.236,9.642,2.236Z"/>
    <path class="st0" d="M126.264,77.637h3.753l-13.493,24.532h-3.952l-13.493-24.532h3.972l11.598,21.099,11.618-21.099h-.002Z"/>
    <path class="st0" d="M149.44,102.568c-2.316,0-4.395-.199-6.238-.599s-3.381-.951-4.611-1.657c-1.231-.706-2.252-1.557-3.064-2.555-.812-.998-1.394-2.069-1.747-3.213-.353-1.145-.529-2.388-.529-3.732v-1.797c0-1.358.176-2.615.529-3.772.353-1.157.934-2.239,1.747-3.244.811-1.005,1.833-1.859,3.064-2.565,1.231-.706,2.767-1.261,4.611-1.667,1.843-.406,3.922-.609,6.238-.609,2.302,0,4.368.193,6.198.579,1.83.386,3.364.925,4.601,1.617,1.238.692,2.262,1.53,3.074,2.515.811.985,1.401,2.053,1.766,3.204s.548,2.406.548,3.763v1.797c0,1.331-.173,2.568-.519,3.713s-.922,2.229-1.726,3.253c-.806,1.025-1.82,1.9-3.044,2.625s-2.762,1.297-4.611,1.717c-1.85.419-3.946.629-6.288.629v-.003ZM149.44,99.314c8.504,0,12.755-2.755,12.755-8.264v-1.797c0-2.741-1.058-4.901-3.174-6.477-2.115-1.577-5.31-2.366-9.581-2.366-4.351,0-7.565.752-9.642,2.255-2.076,1.504-3.114,3.62-3.114,6.347v1.797c0,2.688,1.038,4.777,3.114,6.268,2.076,1.491,5.29,2.236,9.642,2.236Z"/>
  </g>
</svg>