<svg width="21" height="21" viewBox="0 0 21 21" fill="none" xmlns="http://www.w3.org/2000/svg">
<path d="M1.95192 20.9999V16.6845C1.38782 16.5102 0.921473 16.1913 0.552884 15.7278C0.184295 15.2644 0 14.7233 0 14.1046V4.58651H1.95192V0.749982C1.95192 0.537487 2.02383 0.359366 2.16764 0.215619C2.31145 0.071873 2.48965 0 2.70224 0C2.91483 0 3.09292 0.071873 3.2365 0.215619C3.38009 0.359366 3.45188 0.537487 3.45188 0.749982V4.58651H5.4038V14.1046C5.4038 14.7233 5.21951 15.2644 4.85092 15.7278C4.48233 16.1913 4.01598 16.5102 3.45188 16.6845V20.9999H1.95192ZM9.74998 20.9999V16.6845C9.18588 16.5102 8.71954 16.1913 8.35095 15.7278C7.98236 15.2644 7.79806 14.7233 7.79806 14.1046V4.58651H9.74998V0.749982C9.74998 0.537487 9.82189 0.359366 9.9657 0.215619C10.1095 0.071873 10.2877 0 10.5003 0C10.7129 0 10.891 0.071873 11.0346 0.215619C11.1782 0.359366 11.2499 0.537487 11.2499 0.749982V4.58651H13.2019V14.1046C13.2019 14.7233 13.0176 15.2644 12.649 15.7278C12.2804 16.1913 11.814 16.5102 11.2499 16.6845V20.9999H9.74998ZM17.548 20.9999V16.6845C16.9839 16.5102 16.5176 16.1913 16.149 15.7278C15.7804 15.2644 15.5961 14.7233 15.5961 14.1046V4.58651H17.548V0.749982C17.548 0.537487 17.6199 0.359366 17.7638 0.215619C17.9076 0.071873 18.0858 0 18.2984 0C18.511 0 18.689 0.071873 18.8326 0.215619C18.9762 0.359366 19.048 0.537487 19.048 0.749982V4.58651H20.9999V14.1046C20.9999 14.7233 20.8156 15.2644 20.447 15.7278C20.0785 16.1913 19.6121 16.5102 19.048 16.6845V20.9999H17.548ZM1.49996 6.08647V10.4327H3.90384V6.08647H1.49996ZM9.29803 6.08647V10.4327H11.7019V6.08647H9.29803ZM17.0961 6.08647V10.4327H19.5V6.08647H17.0961ZM2.7019 15.3076C3.03652 15.3076 3.3205 15.1925 3.55383 14.9621C3.78717 14.7317 3.90384 14.4463 3.90384 14.1057V11.9326H1.49996V14.1057C1.49996 14.4463 1.61663 14.7317 1.84997 14.9621C2.0833 15.1925 2.36728 15.3076 2.7019 15.3076ZM10.5 15.3076C10.8346 15.3076 11.1186 15.1925 11.3519 14.9621C11.5852 14.7317 11.7019 14.4463 11.7019 14.1057V11.9326H9.29803V14.1057C9.29803 14.4463 9.41469 14.7317 9.64803 14.9621C9.88137 15.1925 10.1653 15.3076 10.5 15.3076ZM18.298 15.3076C18.6326 15.3076 18.9166 15.1925 19.15 14.9621C19.3833 14.7317 19.5 14.4463 19.5 14.1057V11.9326H17.0961V14.1057C17.0961 14.4463 17.2128 14.7317 17.4461 14.9621C17.6794 15.1925 17.9634 15.3076 18.298 15.3076Z" fill="#181818"/>
</svg>
