<svg width="227" height="15" viewBox="0 0 227 15" fill="none" xmlns="http://www.w3.org/2000/svg">
<mask id="mask0_994_2434" style="mask-type:luminance" maskUnits="userSpaceOnUse" x="0" y="0" width="227" height="15">
<path d="M226.242 0H0V14.2894H226.242V0Z" fill="white"/>
</mask>
<g mask="url(#mask0_994_2434)">
<path d="M5.88428 10.9796V4.74829H6.68682V10.9796H5.88428Z" fill="#FDFDFD" fill-opacity="0.8"/>
<path d="M14.8181 4.74829H15.6207V10.9796H14.5315L9.90728 5.66168V10.9796H9.10474V4.74829H10.1748L14.8181 10.0662V4.74829Z" fill="#FDFDFD" fill-opacity="0.8"/>
<path d="M21.3686 4.74829C22.195 4.74829 22.859 4.82948 23.3559 4.99186C23.8622 5.14409 24.254 5.35214 24.5215 5.62108C24.7985 5.8951 24.9848 6.20464 25.0756 6.55477C25.1759 6.90997 25.2285 7.29562 25.2285 7.71172V8.15827C25.2285 8.56422 25.1759 8.93972 25.0756 9.27463C24.9848 9.61461 24.7985 9.914 24.5215 10.1677C24.254 10.4265 23.8622 10.6295 23.3559 10.7766C22.859 10.9137 22.195 10.9796 21.3686 10.9796H18.0247V4.74829H21.3686ZM24.4259 8.15827V7.71172C24.4259 7.38696 24.3782 7.09772 24.2922 6.83893C24.2157 6.56999 24.0676 6.34672 23.8527 6.16911C23.6473 5.98136 23.3415 5.83928 22.9355 5.74287C22.539 5.63631 22.0183 5.58049 21.3686 5.58049H18.8272V10.1474H21.3686C22.0278 10.1474 22.5629 10.1068 22.9737 10.0256C23.3797 9.9343 23.6855 9.79729 23.8909 9.61969C24.0915 9.44716 24.2348 9.23403 24.3113 8.99046C24.3877 8.74689 24.4259 8.47288 24.4259 8.15827Z" fill="#FDFDFD" fill-opacity="0.8"/>
<path d="M30.4472 11.0811C29.7307 11.0811 29.1383 11.005 28.6702 10.8578C28.2116 10.6954 27.8389 10.4823 27.5619 10.2083C27.2944 9.93934 27.1033 9.6298 26.9886 9.2746C26.874 8.90924 26.8167 8.51851 26.8167 8.09734L26.8549 4.76855H27.7147V8.09734C27.7147 8.74686 27.9297 9.26445 28.3644 9.63995C28.7944 10.0205 29.4918 10.2083 30.4472 10.2083C31.4122 10.2083 32.1096 10.0256 32.53 9.66025C32.96 9.29489 33.1797 8.77731 33.1797 8.09734L33.1988 4.76855H34.0778V7.99585C34.0778 8.41703 34.0205 8.8179 33.9058 9.19341C33.7912 9.55876 33.6001 9.88352 33.3326 10.1677C33.0651 10.4518 32.6924 10.6751 32.2243 10.8375C31.7514 10.9999 31.159 11.0811 30.4472 11.0811Z" fill="#FDFDFD" fill-opacity="0.8"/>
<path d="M41.7553 6.69674C41.7553 6.28064 41.526 5.97618 41.0674 5.78335C40.6184 5.5956 40.0069 5.49919 39.233 5.49919C38.698 5.49919 38.2251 5.52964 37.819 5.58038C37.4082 5.62097 37.0929 5.70216 36.8636 5.82395C36.6343 5.93559 36.5197 6.07767 36.5197 6.2502V6.41258C36.5197 6.50899 36.5435 6.6054 36.5961 6.69674C36.6439 6.79315 36.7537 6.87942 36.9209 6.96061C37.0833 7.0418 37.3413 7.12299 37.6853 7.20418C38.0292 7.27522 38.4926 7.33611 39.0802 7.38685C39.8445 7.46804 40.4798 7.56953 40.991 7.69132C41.4974 7.80295 41.8747 7.97041 42.1184 8.19875C42.3716 8.41695 42.5005 8.74679 42.5005 9.19333V9.33541C42.5005 9.93419 42.2235 10.3706 41.6789 10.6547C41.1295 10.9389 40.2458 11.081 39.0228 11.081C37.8763 11.081 37.0356 10.8932 36.5005 10.5127C35.9655 10.1372 35.698 9.6145 35.698 8.94976H36.5005C36.5005 9.37093 36.7012 9.69569 37.112 9.92404C37.5181 10.1422 38.1534 10.2488 39.0228 10.2488C39.4814 10.2488 39.9114 10.2285 40.3222 10.1879C40.7282 10.1372 41.0531 10.0408 41.2967 9.90374C41.5499 9.77181 41.6789 9.57898 41.6789 9.33541V9.19333C41.6789 9.10199 41.6502 9.01065 41.6025 8.92946C41.5499 8.83812 41.4353 8.74679 41.2585 8.6656C41.0913 8.57426 40.8286 8.49307 40.4751 8.42203C40.1168 8.35606 39.6343 8.29009 39.0228 8.21905C38.2298 8.12771 37.5945 8.02622 37.112 7.91459C36.6247 7.7928 36.2712 7.62028 36.0419 7.38685C35.8126 7.15851 35.698 6.83375 35.698 6.41258V6.2502C35.698 5.73768 35.9703 5.34696 36.5197 5.07294C37.0786 4.804 37.9814 4.66699 39.233 4.66699C40.2744 4.66699 41.0913 4.82937 41.6789 5.15413C42.2617 5.46874 42.5579 5.98125 42.5579 6.69674H41.7553Z" fill="#FDFDFD" fill-opacity="0.8"/>
<path d="M49.8145 4.74829V5.56019H46.9674V10.9796H46.1648V5.56019H43.2986V4.74829H49.8145Z" fill="#FDFDFD" fill-opacity="0.8"/>
<path d="M57.5069 6.57506C57.5069 7.01146 57.421 7.34129 57.2585 7.56964C57.1057 7.80306 56.8859 7.96544 56.6089 8.05678C56.8859 8.20901 57.0913 8.41199 57.2203 8.6657C57.3589 8.90927 57.4305 9.19344 57.4305 9.5182V10.3504C57.4305 10.4722 57.4353 10.5889 57.4496 10.6955C57.4592 10.7919 57.4735 10.8883 57.4878 10.9796H56.5706C56.5563 10.8883 56.542 10.7919 56.5324 10.6955C56.5324 10.5889 56.5324 10.4874 56.5324 10.391V9.57909C56.5324 9.37612 56.499 9.19344 56.4369 9.03106C56.3843 8.85853 56.2697 8.72152 56.0929 8.62511C55.9257 8.51855 55.663 8.46273 55.3095 8.46273H51.8318V10.9796H50.9719V4.74829H55.5579C56.2076 4.74829 56.6901 4.89037 57.0101 5.17454C57.3398 5.4587 57.5069 5.8748 57.5069 6.41268V6.57506ZM56.6853 6.57506V6.41268C56.6853 6.16911 56.5993 5.97629 56.4369 5.82406C56.284 5.66168 55.9878 5.58049 55.5579 5.58049H51.8318V7.58994H55.5579C55.964 7.58994 56.2506 7.50367 56.4178 7.32607C56.5945 7.15354 56.6853 6.89982 56.6853 6.57506Z" fill="#FDFDFD" fill-opacity="0.8"/>
<path d="M59.5112 10.9796V4.74829H60.3138V10.9796H59.5112Z" fill="#FDFDFD" fill-opacity="0.8"/>
<path d="M68.0056 10.9796L67.4132 9.80236H63.0948L62.5024 10.9796H61.5852L64.7954 4.76859V4.74829H65.7126V4.76859L68.9228 10.9796H68.0056ZM63.5342 8.97017H66.9737L65.254 5.64138L63.5342 8.97017Z" fill="#FDFDFD" fill-opacity="0.8"/>
<path d="M70.9805 4.74829V10.188H75.8531V10.9796H70.178V4.74829H70.9805Z" fill="#FDFDFD" fill-opacity="0.8"/>
<path d="M84.6962 4.74829C85.5227 4.74829 86.1867 4.82948 86.6835 4.99186C87.1899 5.14409 87.5816 5.35214 87.8491 5.62108C88.1262 5.8951 88.3125 6.20464 88.4032 6.55477C88.5036 6.90997 88.5561 7.29562 88.5561 7.71172V8.15827C88.5561 8.56422 88.5036 8.93972 88.4032 9.27463C88.3125 9.61461 88.1262 9.914 87.8491 10.1677C87.5816 10.4265 87.1899 10.6295 86.6835 10.7766C86.1867 10.9137 85.5227 10.9796 84.6962 10.9796H81.3523V4.74829H84.6962ZM87.7536 8.15827V7.71172C87.7536 7.38696 87.7058 7.09772 87.6198 6.83893C87.5434 6.56999 87.3953 6.34672 87.1803 6.16911C86.9749 5.98136 86.6692 5.83928 86.2631 5.74287C85.8666 5.63631 85.3459 5.58049 84.6962 5.58049H82.1548V10.1474H84.6962C85.3555 10.1474 85.8905 10.1068 86.3013 10.0256C86.7074 9.9343 87.0131 9.79729 87.2185 9.61969C87.4192 9.44716 87.5625 9.23403 87.6389 8.99046C87.7153 8.74689 87.7536 8.47288 87.7536 8.15827Z" fill="#FDFDFD" fill-opacity="0.8"/>
<path d="M96.5264 5.5196H91.3481V7.56964H96.0296V8.32065H91.3481V10.2286H96.5264V10.9796H90.5455V4.74829H96.5264V5.5196Z" fill="#FDFDFD" fill-opacity="0.8"/>
<path d="M103.961 6.69674C103.961 6.28064 103.731 5.97618 103.273 5.78335C102.824 5.5956 102.212 5.49919 101.438 5.49919C100.903 5.49919 100.43 5.52964 100.024 5.58038C99.6134 5.62097 99.2981 5.70216 99.0688 5.82395C98.8395 5.93559 98.7249 6.07767 98.7249 6.2502V6.41258C98.7249 6.50899 98.7487 6.6054 98.8013 6.69674C98.8491 6.79315 98.9589 6.87942 99.1261 6.96061C99.2885 7.0418 99.5465 7.12299 99.8905 7.20418C100.234 7.27522 100.698 7.33611 101.285 7.38685C102.05 7.46804 102.685 7.56953 103.196 7.69132C103.703 7.80295 104.08 7.97041 104.324 8.19875C104.577 8.41695 104.706 8.74679 104.706 9.19333V9.33541C104.706 9.93419 104.429 10.3706 103.884 10.6547C103.335 10.9389 102.451 11.081 101.228 11.081C100.082 11.081 99.2408 10.8932 98.7057 10.5127C98.1707 10.1372 97.9032 9.6145 97.9032 8.94976H98.7057C98.7057 9.37093 98.9064 9.69569 99.3172 9.92404C99.7233 10.1422 100.359 10.2488 101.228 10.2488C101.687 10.2488 102.117 10.2285 102.527 10.1879C102.933 10.1372 103.258 10.0408 103.502 9.90374C103.755 9.77181 103.884 9.57898 103.884 9.33541V9.19333C103.884 9.10199 103.855 9.01065 103.808 8.92946C103.755 8.83812 103.64 8.74679 103.464 8.6656C103.297 8.57426 103.034 8.49307 102.68 8.42203C102.322 8.35606 101.839 8.29009 101.228 8.21905C100.435 8.12771 99.7997 8.02622 99.3172 7.91459C98.8299 7.7928 98.4764 7.62028 98.2471 7.38685C98.0178 7.15851 97.9032 6.83375 97.9032 6.41258V6.2502C97.9032 5.73768 98.1755 5.34696 98.7249 5.07294C99.2838 4.804 100.187 4.66699 101.438 4.66699C102.48 4.66699 103.297 4.82937 103.884 5.15413C104.467 5.46874 104.763 5.98125 104.763 6.69674H103.961Z" fill="#FDFDFD" fill-opacity="0.8"/>
<path d="M106.746 10.9796V4.74829H107.548V10.9796H106.746Z" fill="#FDFDFD" fill-opacity="0.8"/>
<path d="M113.712 7.69138H117.189V10.9796H116.54L116.425 9.88351V9.84292C116.181 10.2489 115.804 10.5635 115.298 10.7766C114.801 10.9796 114.132 11.0811 113.291 11.0811C112.575 11.0811 111.978 11.0049 111.495 10.8578C111.022 10.6954 110.64 10.4823 110.349 10.2083C110.067 9.92411 109.861 9.59935 109.737 9.23399C109.608 8.85849 109.546 8.45254 109.546 8.01614V7.71168C109.546 7.1332 109.665 6.61054 109.909 6.14878C110.162 5.67686 110.568 5.30643 111.132 5.03241C111.705 4.76347 112.46 4.62646 113.406 4.62646C114.065 4.62646 114.629 4.69751 115.087 4.82944C115.546 4.96645 115.914 5.14913 116.196 5.37747C116.487 5.59567 116.697 5.83924 116.826 6.10818C116.965 6.3822 117.046 6.65114 117.075 6.92008H116.196C116.167 6.69173 116.062 6.46846 115.871 6.25026C115.68 6.02192 115.384 5.83416 114.992 5.68193C114.595 5.53478 114.065 5.45866 113.406 5.45866C112.336 5.45866 111.557 5.66164 111.075 6.06759C110.602 6.46339 110.368 7.01142 110.368 7.71168V8.01614C110.368 8.47791 110.454 8.87879 110.635 9.2137C110.826 9.55368 111.137 9.81247 111.571 9.985C112.001 10.1626 112.575 10.2489 113.291 10.2489C114.194 10.2489 114.896 10.1068 115.393 9.82262C115.89 9.53846 116.2 9.08176 116.329 8.44239H113.712V7.69138Z" fill="#FDFDFD" fill-opacity="0.8"/>
<path d="M124.941 4.74829H125.744V10.9796H124.655L120.03 5.66168V10.9796H119.228V4.74829H120.298L124.941 10.0662V4.74829Z" fill="#FDFDFD" fill-opacity="0.8"/>
<path d="M138.109 7.32607V8.13797H137.421V10.9796H136.733L136.714 10.2083C136.637 10.3605 136.508 10.4874 136.332 10.594C136.165 10.6904 135.959 10.7665 135.72 10.8172C135.491 10.8731 135.247 10.9137 134.994 10.939C134.736 10.9695 134.497 10.9796 134.268 10.9796C133.566 10.9796 133.026 10.8984 132.644 10.736C132.262 10.5737 131.994 10.3656 131.841 10.1068C131.698 9.83788 131.631 9.53342 131.631 9.19344V9.07165C131.631 8.74689 131.688 8.46273 131.803 8.21916C131.927 7.96544 132.114 7.80306 132.357 7.73202C132.19 7.65083 132.056 7.50367 131.956 7.28548C131.851 7.05713 131.803 6.79326 131.803 6.49387V6.39239C131.803 6.08285 131.865 5.80376 131.994 5.56019C132.133 5.31662 132.381 5.1238 132.739 4.97156C133.093 4.82441 133.604 4.74829 134.268 4.74829H135.147C135.758 4.74829 136.236 4.82441 136.58 4.97156C136.924 5.1238 137.163 5.31662 137.306 5.56019C137.445 5.80376 137.516 6.08285 137.516 6.39239V6.59536H136.695V6.39239C136.695 6.21986 136.647 6.06763 136.561 5.94584C136.485 5.82406 136.337 5.73779 136.122 5.68198C135.902 5.61601 135.577 5.58049 135.147 5.58049H134.268C133.809 5.58049 133.456 5.61601 133.217 5.68198C132.988 5.73779 132.825 5.82406 132.739 5.94584C132.663 6.06763 132.625 6.21986 132.625 6.39239V6.49387C132.625 6.6461 132.653 6.78819 132.72 6.92012C132.797 7.04191 132.95 7.14339 133.179 7.22458C133.418 7.29562 133.781 7.32607 134.268 7.32607H138.109ZM136.637 8.13797H134.268C133.757 8.13797 133.37 8.17857 133.102 8.25976C132.844 8.3308 132.673 8.43736 132.587 8.58451C132.496 8.72152 132.453 8.8839 132.453 9.07165V9.19344C132.453 9.38627 132.491 9.55372 132.567 9.70088C132.653 9.83788 132.825 9.9546 133.083 10.0459C133.351 10.1271 133.743 10.1677 134.268 10.1677C134.765 10.1677 135.185 10.1423 135.529 10.0865C135.883 10.0206 136.16 9.89878 136.351 9.72117C136.542 9.53342 136.637 9.25433 136.637 8.88898V8.13797Z" fill="#FDFDFD" fill-opacity="0.8"/>
<path d="M147.341 4.74829C148.167 4.74829 148.831 4.82948 149.328 4.99186C149.834 5.14409 150.226 5.35214 150.494 5.62108C150.771 5.8951 150.957 6.20464 151.048 6.55477C151.148 6.90997 151.201 7.29562 151.201 7.71172V8.15827C151.201 8.56422 151.148 8.93972 151.048 9.27463C150.957 9.61461 150.771 9.914 150.494 10.1677C150.226 10.4265 149.834 10.6295 149.328 10.7766C148.831 10.9137 148.167 10.9796 147.341 10.9796H143.997V4.74829H147.341ZM150.398 8.15827V7.71172C150.398 7.38696 150.35 7.09772 150.264 6.83893C150.188 6.56999 150.04 6.34672 149.825 6.16911C149.619 5.98136 149.314 5.83928 148.908 5.74287C148.511 5.63631 147.99 5.58049 147.341 5.58049H144.799V10.1474H147.341C148 10.1474 148.535 10.1068 148.946 10.0256C149.352 9.9343 149.658 9.79729 149.863 9.61969C150.064 9.44716 150.207 9.23403 150.283 8.99046C150.36 8.74689 150.398 8.47288 150.398 8.15827Z" fill="#FDFDFD" fill-opacity="0.8"/>
<path d="M159.171 5.5196H153.992V7.56964H158.674V8.32065H153.992V10.2286H159.171V10.9796H153.19V4.74829H159.171V5.5196Z" fill="#FDFDFD" fill-opacity="0.8"/>
<path d="M166.223 4.74829H167.121L163.911 10.9796H162.955L159.726 4.74829H160.681L163.452 10.1068L166.223 4.74829Z" fill="#FDFDFD" fill-opacity="0.8"/>
<path d="M174.298 5.5196H169.119V7.56964H173.801V8.32065H169.119V10.2286H174.298V10.9796H168.317V4.74829H174.298V5.5196Z" fill="#FDFDFD" fill-opacity="0.8"/>
<path d="M176.898 4.74829V10.188H181.77V10.9796H176.095V4.74829H176.898Z" fill="#FDFDFD" fill-opacity="0.8"/>
<path d="M187.187 4.74829C187.808 4.74829 188.286 4.82948 188.62 4.99186C188.95 5.14409 189.179 5.35214 189.308 5.62108C189.432 5.8951 189.499 6.20971 189.499 6.57506V6.87953C189.499 7.56964 189.318 8.07708 188.964 8.40184C188.606 8.71645 188.014 8.86868 187.187 8.86868H184.168V10.9796H183.365V4.74829H187.187ZM188.678 6.87953V6.57506C188.678 6.20971 188.553 5.95599 188.315 5.80376C188.085 5.6566 187.674 5.58049 187.092 5.58049H184.168V8.03648H187.092C187.703 8.03648 188.114 7.95022 188.334 7.77262C188.563 7.60009 188.678 7.3007 188.678 6.87953Z" fill="#FDFDFD" fill-opacity="0.8"/>
<path d="M199.908 4.74829V10.9796H199.105V5.82406L196.048 10.9593L196.067 10.9796H195.112V10.9593L192.093 5.82406V10.9796H191.29V4.74829H192.417L195.589 10.1677L198.78 4.74829H199.908Z" fill="#FDFDFD" fill-opacity="0.8"/>
<path d="M208.289 5.5196H203.111V7.56964H207.792V8.32065H203.111V10.2286H208.289V10.9796H202.308V4.74829H208.289V5.5196Z" fill="#FDFDFD" fill-opacity="0.8"/>
<path d="M215.8 4.74829H216.602V10.9796H215.513L210.889 5.66168V10.9796H210.086V4.74829H211.156L215.8 10.0662V4.74829Z" fill="#FDFDFD" fill-opacity="0.8"/>
<path d="M224.28 4.74829V5.56019H221.433V10.9796H220.63V5.56019H217.764V4.74829H224.28Z" fill="#FDFDFD" fill-opacity="0.8"/>
</g>
</svg>
