<svg width="24" height="25" viewBox="0 0 24 25" fill="none" xmlns="http://www.w3.org/2000/svg">
<path d="M20.8472 15.4747L16.4306 13.4131L16.4184 13.4073C16.1892 13.3051 15.939 13.2641 15.6907 13.288C15.4424 13.3119 15.2037 13.3999 14.9963 13.544C14.9718 13.5608 14.9484 13.5791 14.9259 13.5987L12.6441 15.625C11.1984 14.8936 9.70595 13.3506 9.00376 11.8643L10.9519 9.45122C10.9706 9.4268 10.9884 9.40239 11.0053 9.37602C11.1407 9.1605 11.2229 8.91345 11.2445 8.65686C11.2661 8.40027 11.2264 8.14209 11.1291 7.90532V7.8936L9.14438 3.2852C9.0157 2.97589 8.79444 2.71823 8.51362 2.55067C8.2328 2.38311 7.9075 2.31466 7.58626 2.35552C6.31592 2.52964 5.14986 3.17951 4.30588 4.18373C3.4619 5.18796 2.99771 6.47787 3.00001 7.81255C3.00001 15.5665 9.05626 21.875 16.5 21.875C17.7813 21.8774 19.0196 21.3939 19.9837 20.5148C20.9477 19.6356 21.5716 18.421 21.7388 17.0977C21.7781 16.7632 21.7125 16.4244 21.5518 16.1319C21.3911 15.8394 21.144 15.6089 20.8472 15.4747ZM16.5 20.3125C13.3185 20.3089 10.2682 18.9908 8.01856 16.6474C5.76888 14.304 4.50348 11.1266 4.50001 7.81255C4.49648 6.85892 4.82631 5.93657 5.42789 5.21773C6.02947 4.49889 6.86167 4.03273 7.76907 3.9063C7.7687 3.91019 7.7687 3.91412 7.76907 3.91802L9.73782 8.50786L7.80001 10.9239C7.78034 10.9474 7.76247 10.9726 7.74657 10.9991C7.60549 11.2246 7.52273 11.4842 7.5063 11.7528C7.48988 12.0215 7.54035 12.2899 7.65282 12.5323C8.5022 14.3418 10.2525 16.1514 12.0084 17.0352C12.2428 17.1513 12.502 17.202 12.7608 17.1825C13.0196 17.163 13.2692 17.0739 13.485 16.9239C13.5091 16.907 13.5322 16.8887 13.5544 16.8692L15.8334 14.8438L20.2397 16.8995C20.2397 16.8995 20.2472 16.8995 20.25 16.8995C20.1301 17.846 19.6833 18.7146 18.9931 19.3428C18.3028 19.971 17.4166 20.3158 16.5 20.3125Z" fill="#7F7A7A"/>
</svg>
