<svg width="20" height="18" viewBox="0 0 20 18" fill="none" xmlns="http://www.w3.org/2000/svg">
<path d="M2.49996 11.4999C1.80126 11.4999 1.20992 11.2579 0.725951 10.7739C0.241984 10.29 0 9.69864 0 8.99993C0 8.30122 0.241984 7.70988 0.725951 7.22591C1.20992 6.74195 1.80126 6.49996 2.49996 6.49996V4.30764C2.49996 3.81053 2.67697 3.38497 3.03097 3.03097C3.38497 2.67697 3.81053 2.49996 4.30764 2.49996H7.49996C7.49996 1.80126 7.74195 1.20992 8.22591 0.725951C8.70988 0.241984 9.30122 0 9.99993 0C10.6986 0 11.29 0.241984 11.7739 0.725951C12.2579 1.20992 12.4999 1.80126 12.4999 2.49996H15.6922C16.1893 2.49996 16.6149 2.67697 16.9689 3.03097C17.3229 3.38497 17.4999 3.81053 17.4999 4.30764V6.49996C18.1986 6.49996 18.7899 6.74195 19.2739 7.22591C19.7579 7.70988 19.9999 8.30122 19.9999 8.99993C19.9999 9.69864 19.7579 10.29 19.2739 10.7739C18.7899 11.2579 18.1986 11.4999 17.4999 11.4999V15.6922C17.4999 16.1893 17.3229 16.6149 16.9689 16.9689C16.6149 17.3229 16.1893 17.4999 15.6922 17.4999H4.30764C3.81053 17.4999 3.38497 17.3229 3.03097 16.9689C2.67697 16.6149 2.49996 16.1893 2.49996 15.6922V11.4999ZM6.9988 9.74991C7.3457 9.74991 7.64094 9.62849 7.88453 9.38566C8.12812 9.14283 8.24991 8.84796 8.24991 8.50106C8.24991 8.15416 8.12849 7.85891 7.88566 7.61532C7.64283 7.37174 7.34796 7.24995 7.00106 7.24995C6.65416 7.24995 6.35891 7.37136 6.11532 7.61419C5.87174 7.85703 5.74995 8.15189 5.74995 8.4988C5.74995 8.8457 5.87136 9.14094 6.11419 9.38453C6.35702 9.62812 6.65189 9.74991 6.9988 9.74991ZM12.9988 9.74991C13.3457 9.74991 13.6409 9.62849 13.8845 9.38566C14.1281 9.14283 14.2499 8.84796 14.2499 8.50106C14.2499 8.15416 14.1285 7.85891 13.8857 7.61532C13.6428 7.37174 13.348 7.24995 13.0011 7.24995C12.6542 7.24995 12.3589 7.37136 12.1153 7.61419C11.8717 7.85703 11.7499 8.15189 11.7499 8.4988C11.7499 8.8457 11.8714 9.14094 12.1142 9.38453C12.357 9.62812 12.6519 9.74991 12.9988 9.74991ZM6.24995 13.7499H13.7499V12.2499H6.24995V13.7499ZM4.30764 15.9999H15.6922C15.782 15.9999 15.8557 15.9711 15.9134 15.9134C15.9711 15.8557 15.9999 15.782 15.9999 15.6922V4.30764C15.9999 4.21789 15.9711 4.14417 15.9134 4.08647C15.8557 4.02878 15.782 3.99993 15.6922 3.99993H4.30764C4.21789 3.99993 4.14417 4.02878 4.08647 4.08647C4.02878 4.14417 3.99993 4.21789 3.99993 4.30764V15.6922C3.99993 15.782 4.02878 15.8557 4.08647 15.9134C4.14417 15.9711 4.21789 15.9999 4.30764 15.9999Z" fill="#181818"/>
</svg>
