<svg width="227" height="41" viewBox="0 0 227 41" fill="none" xmlns="http://www.w3.org/2000/svg">
<path d="M0 40.0062V0.791504H5.01791V40.0062H0Z" fill="#FDFDFD" fill-opacity="0.8"/>
<path d="M55.9457 0.791504H60.9636V40.0062H54.2351L25.211 6.53569V40.0062H20.1931V0.791504H26.8647L55.9457 34.2621V0.791504Z" fill="#FDFDFD" fill-opacity="0.8"/>
<path d="M97.6762 40.6559C91.7555 40.6559 87.0227 39.8135 83.4778 38.1187C79.9282 36.4137 77.367 34.1353 75.7989 31.2784C74.2261 28.4266 73.442 25.2805 73.442 21.8401V18.9578C73.442 15.4261 74.2261 12.2394 75.7989 9.39773C77.367 6.54594 79.9282 4.26247 83.4778 2.55748C87.0227 0.852494 91.7555 0 97.6762 0C103.54 0 108.249 0.822049 111.799 2.456C115.358 4.09502 117.928 6.32774 119.516 9.15416C121.112 11.9857 121.91 15.1622 121.91 18.694V21.5762C121.91 24.1489 121.478 26.5795 120.618 28.863C119.767 31.1516 118.399 33.1813 116.512 34.9523C114.635 36.7131 112.145 38.1085 109.043 39.1335C105.949 40.1484 102.162 40.6559 97.6762 40.6559ZM97.6762 35.4394C102.238 35.4394 105.916 34.9015 108.719 33.8156C111.518 32.7195 113.557 31.1871 114.84 29.2081C116.118 27.2189 116.759 24.8949 116.759 22.2257V19.3435C116.759 15.1216 115.225 11.7218 112.16 9.13387C109.104 6.53579 104.276 5.23675 97.6762 5.23675C90.9334 5.23675 86.0628 6.48504 83.0597 8.97149C80.066 11.4478 78.574 14.7766 78.574 18.9578V21.8401C78.574 25.9402 80.066 29.2385 83.0597 31.725C86.0628 34.2013 90.9334 35.4394 97.6762 35.4394Z" fill="#FDFDFD" fill-opacity="0.8"/>
<path d="M167.316 0.791504H172.942L152.737 40.0062H146.807L126.602 0.791504H132.552L149.924 34.5259L167.316 0.791504Z" fill="#FDFDFD" fill-opacity="0.8"/>
<path d="M202.008 40.6559C196.087 40.6559 191.354 39.8135 187.809 38.1187C184.26 36.4137 181.698 34.1353 180.13 31.2784C178.557 28.4266 177.773 25.2805 177.773 21.8401V18.9578C177.773 15.4261 178.557 12.2394 180.13 9.39773C181.698 6.54594 184.26 4.26247 187.809 2.55748C191.354 0.852494 196.087 0 202.008 0C207.871 0 212.58 0.822049 216.13 2.456C219.689 4.09502 222.26 6.32774 223.847 9.15416C225.443 11.9857 226.242 15.1622 226.242 18.694V21.5762C226.242 24.1489 225.809 26.5795 224.949 28.863C224.099 31.1516 222.73 33.1813 220.844 34.9523C218.967 36.7131 216.477 38.1085 213.374 39.1335C210.28 40.1484 206.493 40.6559 202.008 40.6559ZM202.008 35.4394C206.569 35.4394 210.247 34.9015 213.051 33.8156C215.85 32.7195 217.888 31.1871 219.171 29.2081C220.449 27.2189 221.091 24.8949 221.091 22.2257V19.3435C221.091 15.1216 219.556 11.7218 216.491 9.13387C213.436 6.53579 208.608 5.23675 202.008 5.23675C195.265 5.23675 190.394 6.48504 187.391 8.97149C184.397 11.4478 182.905 14.7766 182.905 18.9578V21.8401C182.905 25.9402 184.397 29.2385 187.391 31.725C190.394 34.2013 195.265 35.4394 202.008 35.4394Z" fill="#FDFDFD" fill-opacity="0.8"/>
</svg>
