<svg width="190" height="35" viewBox="0 0 190 35" fill="none" xmlns="http://www.w3.org/2000/svg">
<path d="M0 34.4409V0.681519H4.21409V34.4409H0Z" fill="#181818"/>
<path d="M46.9837 0.681519H51.1978V34.4409H45.5471L21.1725 5.6266V34.4409H16.9584V0.681519H22.5612L46.9837 29.4958V0.681519Z" fill="#181818"/>
<path d="M82.0295 35C77.0572 35 73.0825 34.2748 70.1055 32.8158C67.1246 31.348 64.9736 29.3865 63.6567 26.9271C62.3358 24.472 61.6774 21.7636 61.6774 18.8018V16.3205C61.6774 13.2801 62.3358 10.5367 63.6567 8.09036C64.9736 5.6353 67.1246 3.6695 70.1055 2.2017C73.0825 0.733899 77.0572 0 82.0295 0C86.9539 0 90.9086 0.707689 93.8896 2.11433C96.8786 3.52534 99.0375 5.44745 100.37 7.88068C101.711 10.3183 102.382 13.0529 102.382 16.0934V18.5746C102.382 20.7894 102.018 22.8819 101.296 24.8477C100.582 26.8179 99.4325 28.5653 97.8483 30.0899C96.272 31.6057 94.1809 32.807 91.575 33.6895C88.9771 34.5632 85.7966 35 82.0295 35ZM82.0295 30.5092C85.8605 30.5092 88.9492 30.0462 91.3037 29.1113C93.6541 28.1677 95.3661 26.8485 96.4436 25.1448C97.5171 23.4324 98.0558 21.4316 98.0558 19.1338V16.6525C98.0558 13.018 96.7668 10.0911 94.1929 7.8632C91.6269 5.62656 87.5724 4.50824 82.0295 4.50824C76.3668 4.50824 72.2764 5.58288 69.7544 7.72341C67.2403 9.85522 65.9872 12.7209 65.9872 16.3205V18.8018C65.9872 22.3315 67.2403 25.171 69.7544 27.3115C72.2764 29.4433 76.3668 30.5092 82.0295 30.5092Z" fill="#181818"/>
<path d="M140.513 0.681519H145.238L128.27 34.4409H123.29L106.322 0.681519H111.318L125.908 29.723L140.513 0.681519Z" fill="#181818"/>
<path d="M169.648 35C164.676 35 160.701 34.2748 157.724 32.8158C154.743 31.348 152.592 29.3865 151.275 26.9271C149.954 24.472 149.296 21.7636 149.296 18.8018V16.3205C149.296 13.2801 149.954 10.5367 151.275 8.09036C152.592 5.6353 154.743 3.6695 157.724 2.2017C160.701 0.733899 164.676 0 169.648 0C174.572 0 178.527 0.707689 181.508 2.11433C184.497 3.52534 186.656 5.44745 187.989 7.88068C189.33 10.3183 190 13.0529 190 16.0934V18.5746C190 20.7894 189.637 22.8819 188.915 24.8477C188.2 26.8179 187.051 28.5653 185.467 30.0899C183.89 31.6057 181.799 32.807 179.193 33.6895C176.596 34.5632 173.415 35 169.648 35ZM169.648 30.5092C173.479 30.5092 176.568 30.0462 178.922 29.1113C181.273 28.1677 182.985 26.8485 184.062 25.1448C185.135 23.4324 185.674 21.4316 185.674 19.1338V16.6525C185.674 13.018 184.385 10.0911 181.811 7.8632C179.245 5.62656 175.191 4.50824 169.648 4.50824C163.985 4.50824 159.895 5.58288 157.373 7.72341C154.859 9.85522 153.606 12.7209 153.606 16.3205V18.8018C153.606 22.3315 154.859 25.171 157.373 27.3115C159.895 29.4433 163.985 30.5092 169.648 30.5092Z" fill="#181818"/>
</svg>
