<svg width="24" height="20" viewBox="0 0 24 20" fill="none" xmlns="http://www.w3.org/2000/svg">
<g clip-path="url(#clip0_994_2583)">
<path d="M2.4 20C1.74 20 1.175 19.7552 0.705 19.2656C0.235 18.776 0 18.1875 0 17.5V2.5C0 1.8125 0.235 1.22396 0.705 0.734375C1.175 0.244792 1.74 0 2.4 0H21.6C22.26 0 22.825 0.244792 23.295 0.734375C23.765 1.22396 24 1.8125 24 2.5V17.5C24 18.1875 23.765 18.776 23.295 19.2656C22.825 19.7552 22.26 20 21.6 20H2.4ZM12 11.25L2.4 5V17.5H21.6V5L12 11.25ZM12 8.75L21.6 2.5H2.4L12 8.75ZM2.4 5V2.5V17.5V5Z" fill="#FDFDFD" fill-opacity="0.8"/>
</g>
<defs>
<clipPath id="clip0_994_2583">
<rect width="24" height="20" fill="white"/>
</clipPath>
</defs>
</svg>
