<svg width="72" height="72" xmlns="http://www.w3.org/2000/svg" xmlns:xlink="http://www.w3.org/1999/xlink" xml:space="preserve" overflow="hidden"><g><path d="M71.0572 35.9452C71.0572 55.2882 55.3766 70.9688 36.0336 70.9688 16.6906 70.9688 1.00999 55.2882 1.00999 35.9452 1.00999 16.6022 16.6906 0.921597 36.0336 0.921597 55.3766 0.921596 71.0572 16.6022 71.0572 35.9452Z" stroke="#231F20" stroke-width="0.1" stroke-miterlimit="10" fill="#FFFFFF"/><path d="M5.816 40.8676 5.816 31.0548 7.1572 31.0548 7.1572 40.8676C7.1572 40.8676 5.816 40.8676 5.816 40.8676Z" fill="#231F20"/><path d="M20.7552 31.0548 22.0964 31.0548 22.0964 40.8676 20.3 40.8676 12.5472 32.4916 12.5472 40.8676 11.206 40.8676 11.206 31.0548 12.9868 31.0548 20.756 39.4308 20.756 31.0548 20.7556 31.0548Z" fill="#231F20"/><path d="M31.9016 41.0272C30.9752 41.0272 30.1436 40.9476 29.4064 40.7876 28.6692 40.6276 28.054 40.4072 27.562 40.1248 27.0696 39.8424 26.6612 39.502 26.3364 39.1028 26.0116 38.7036 25.7788 38.2752 25.6376 37.8176 25.4964 37.36 25.426 36.8624 25.426 36.3248L25.426 35.606C25.426 35.0628 25.4964 34.56 25.6376 34.0972 25.7788 33.6344 26.0112 33.2016 26.3364 32.7996 26.6608 32.3976 27.0696 32.056 27.562 31.7736 28.0544 31.4912 28.6688 31.2692 29.4064 31.1068 30.1436 30.9444 30.9752 30.8632 31.9016 30.8632 32.8224 30.8632 33.6488 30.9404 34.3808 31.0948 35.1128 31.2492 35.7264 31.4648 36.2212 31.7416 36.7164 32.0184 37.126 32.3536 37.4508 32.7476 37.7752 33.1416 38.0112 33.5688 38.1572 34.0292 38.3032 34.4896 38.3764 34.9916 38.3764 35.5344L38.3764 36.2532C38.3764 36.7856 38.3072 37.2804 38.1688 37.7384 38.0304 38.1964 37.8 38.63 37.4784 39.0396 37.156 39.4496 36.7504 39.7996 36.2608 40.0896 35.7712 40.3796 35.156 40.6084 34.4164 40.7764 33.6764 40.944 32.838 41.028 31.9012 41.028L31.9012 41.0268ZM31.9016 39.7256C35.3032 39.7256 37.0036 38.6236 37.0036 36.42L37.0036 35.7012C37.0036 34.6048 36.5804 33.7408 35.734 33.1104 34.888 32.4796 33.61 32.164 31.9016 32.164 30.1612 32.164 28.8756 32.4648 28.0448 33.066 27.2144 33.6676 26.7992 34.514 26.7992 35.6048L26.7992 36.3236C26.7992 37.3988 27.2144 38.2344 28.0448 38.8308 28.8752 39.4272 30.1608 39.7252 31.9016 39.7252Z" fill="#231F20"/><path d="M50.5056 31.0548 52.0068 31.0548 46.6096 40.8676 45.0288 40.8676 39.6316 31.0548 41.2204 31.0548 45.8596 39.4944 50.5068 31.0548 50.506 31.0548Z" fill="#231F20"/><path d="M59.776 41.0272C58.8496 41.0272 58.018 40.9476 57.2808 40.7876 56.5436 40.6276 55.9284 40.4072 55.4364 40.1248 54.944 39.8424 54.5356 39.502 54.2108 39.1028 53.886 38.7036 53.6532 38.2752 53.512 37.8176 53.3708 37.3596 53.3004 36.8624 53.3004 36.3248L53.3004 35.606C53.3004 35.0628 53.3708 34.56 53.512 34.0972 53.6532 33.6344 53.8856 33.2016 54.2108 32.7996 54.5352 32.3976 54.944 32.056 55.4364 31.7736 55.9288 31.4912 56.5432 31.2692 57.2808 31.1068 58.018 30.9444 58.8496 30.8632 59.776 30.8632 60.6968 30.8632 61.5232 30.9404 62.2552 31.0948 62.9872 31.2492 63.6008 31.4648 64.0956 31.7416 64.5908 32.0184 65.0004 32.3536 65.3252 32.7476 65.6496 33.1416 65.8856 33.5688 66.0316 34.0292 66.1776 34.4896 66.2508 34.9916 66.2508 35.5344L66.2508 36.2532C66.2508 36.7856 66.1816 37.2804 66.0432 37.7384 65.9048 38.1964 65.6744 38.63 65.3528 39.0396 65.0304 39.4496 64.6248 39.7996 64.1352 40.0896 63.6456 40.3796 63.0304 40.6084 62.2908 40.7764 61.5508 40.944 60.7124 41.028 59.7756 41.028L59.7756 41.0268ZM59.776 39.7256C63.1776 39.7256 64.878 38.6236 64.878 36.42L64.878 35.7012C64.878 34.6048 64.4548 33.7408 63.6084 33.1104 62.7624 32.4796 61.4844 32.164 59.776 32.164 58.0356 32.164 56.75 32.4648 55.9192 33.066 55.0888 33.6676 54.6736 34.514 54.6736 35.6048L54.6736 36.3236C54.6736 37.3988 55.0888 38.2344 55.9192 38.8308 56.7496 39.4272 58.0352 39.7252 59.776 39.7252Z" fill="#231F20"/></g></svg>